<svg>


<!-- логотип Nagency -->
<symbol id="logo-nagency" xmlns="http://www.w3.org/2000/svg" width="38" height="32" viewBox="0 0 38 32" fill="none">
  <g clip-path="url(#clip0_14_30)">
    <path d="M16.7054 0.301758L37.3161 20.7308V31.698H27.6978V24.6733L12.728 9.83529H9.6183V31.698H0V0.301758H16.7054ZM27.6978 11.1972V0.301758H37.3161V11.1972H27.6978Z" fill="#00B5E2"/>
    <rect x="27.6951" y="0.301758" width="9.62103" height="10.9076" fill="#F0899C"/>
  </g>
  <defs>
    <clipPath id="clip0_14_30">
      <rect width="38" height="32" fill="white"/>
    </clipPath>
  </defs>
</symbol>


<!-- иконки для секции Our Projects -->

<symbol id="icon-layers" xmlns="http://www.w3.org/2000/svg" width="45" height="45" viewBox="0 0 45 45" fill="none">
<path d="M13.7768 20.6064C14.599 17.5381 17.7529 14.3842 20.8212 13.5619L39.9502 8.43557C43.0185 7.61331 44.8392 9.43406 44.0169 12.5023L38.8906 31.6313C38.0683 34.6996 34.9144 37.8535 31.8461 38.6757L12.7172 43.8021C9.6489 44.6244 7.82815 42.8036 8.65042 39.7354L13.7768 20.6064Z" fill="#9E77ED"/>
<path d="M6.10882 12.9374C6.93108 9.86916 10.085 6.71526 13.1533 5.89299L32.2822 0.766626C35.3505 -0.0556388 37.1713 1.76511 36.349 4.83338L31.2226 23.9624C30.4004 27.0306 27.2465 30.1845 24.1782 31.0068L5.0492 36.1332C1.98093 36.9554 0.160184 35.1347 0.982448 32.0664L6.10882 12.9374Z" fill="#6941C6"/>
</symbol>

<symbol id="layers" xmlns="http://www.w3.org/2000/svg" width="88" height="28" viewBox="0 0 88 28" fill="none">
  <path d="M3.79161 17.7121H10.3716V20.2881H0.599609V0.828125H3.79161V17.7121Z" fill="#101828"/>
  <path d="M11.977 12.5041C11.977 10.9548 12.2943 9.58279 12.929 8.38813C13.5823 7.19346 14.4597 6.26946 15.561 5.61613C16.681 4.94413 17.913 4.60813 19.257 4.60813C20.4703 4.60813 21.525 4.85079 22.421 5.33612C23.3357 5.80279 24.0637 6.39079 24.605 7.10013V4.86013H27.825V20.2881H24.605V17.9921C24.0637 18.7201 23.3263 19.3268 22.393 19.8121C21.4597 20.2975 20.3957 20.5401 19.201 20.5401C17.8757 20.5401 16.6623 20.2041 15.561 19.5321C14.4597 18.8415 13.5823 17.8895 12.929 16.6761C12.2943 15.4441 11.977 14.0535 11.977 12.5041ZM24.605 12.5601C24.605 11.4961 24.381 10.5721 23.933 9.78813C23.5037 9.00413 22.9343 8.40679 22.225 7.99613C21.5157 7.58546 20.7503 7.38013 19.929 7.38013C19.1077 7.38013 18.3423 7.58546 17.633 7.99613C16.9237 8.38813 16.345 8.97613 15.897 9.76013C15.4677 10.5255 15.253 11.4401 15.253 12.5041C15.253 13.5681 15.4677 14.5015 15.897 15.3041C16.345 16.1068 16.9237 16.7228 17.633 17.1521C18.361 17.5628 19.1263 17.7681 19.929 17.7681C20.7503 17.7681 21.5157 17.5628 22.225 17.1521C22.9343 16.7415 23.5037 16.1441 23.933 15.3601C24.381 14.5575 24.605 13.6241 24.605 12.5601Z" fill="#101828"/>
  <path d="M45.9056 4.86013L36.4416 27.5401H33.1376L36.2736 20.0361L30.1976 4.86013H33.7536L38.0936 16.6201L42.6016 4.86013H45.9056Z" fill="#101828"/>
  <path d="M62.4544 12.1961C62.4544 12.7748 62.4171 13.2975 62.3424 13.7641H50.5544C50.6478 14.9961 51.1051 15.9855 51.9264 16.7321C52.7478 17.4788 53.7558 17.8521 54.9504 17.8521C56.6678 17.8521 57.8811 17.1335 58.5904 15.6961H62.0344C61.5678 17.1148 60.7184 18.2815 59.4864 19.1961C58.2731 20.0921 56.7611 20.5401 54.9504 20.5401C53.4758 20.5401 52.1504 20.2135 50.9744 19.5601C49.8171 18.8881 48.9024 17.9548 48.2304 16.7601C47.5771 15.5468 47.2504 14.1468 47.2504 12.5601C47.2504 10.9735 47.5678 9.58279 48.2024 8.38813C48.8558 7.17479 49.7611 6.24146 50.9184 5.58813C52.0944 4.93479 53.4384 4.60813 54.9504 4.60813C56.4064 4.60813 57.7038 4.92546 58.8424 5.56013C59.9811 6.19479 60.8678 7.09079 61.5024 8.24813C62.1371 9.38679 62.4544 10.7028 62.4544 12.1961ZM59.1224 11.1881C59.1038 10.0121 58.6838 9.06946 57.8624 8.36013C57.0411 7.65079 56.0238 7.29613 54.8104 7.29613C53.7091 7.29613 52.7664 7.65079 51.9824 8.36013C51.1984 9.05079 50.7318 9.99346 50.5824 11.1881H59.1224Z" fill="#101828"/>
  <path d="M68.7877 7.10013C69.2544 6.31613 69.8704 5.70946 70.6357 5.28013C71.4197 4.83213 72.3437 4.60813 73.4077 4.60813V7.91212H72.5957C71.345 7.91212 70.393 8.22946 69.7397 8.86413C69.105 9.49879 68.7877 10.6001 68.7877 12.1681V20.2881H65.5957V4.86013H68.7877V7.10013Z" fill="#101828"/>
  <path d="M81.9418 20.5401C80.7284 20.5401 79.6365 20.3255 78.6658 19.8961C77.7138 19.4481 76.9578 18.8508 76.3978 18.1041C75.8378 17.3388 75.5391 16.4895 75.5018 15.5561H78.8058C78.8618 16.2095 79.1698 16.7601 79.7298 17.2081C80.3084 17.6375 81.0271 17.8521 81.8858 17.8521C82.7818 17.8521 83.4725 17.6841 83.9578 17.3481C84.4618 16.9935 84.7138 16.5455 84.7138 16.0041C84.7138 15.4255 84.4338 14.9961 83.8738 14.7161C83.3325 14.4361 82.4644 14.1281 81.2698 13.7921C80.1124 13.4748 79.1698 13.1668 78.4418 12.8681C77.7138 12.5695 77.0791 12.1121 76.5378 11.4961C76.0151 10.8801 75.7538 10.0681 75.7538 9.06012C75.7538 8.23879 75.9964 7.49213 76.4818 6.82012C76.9671 6.12946 77.6578 5.58813 78.5538 5.19613C79.4685 4.80413 80.5138 4.60813 81.6898 4.60813C83.4444 4.60813 84.8538 5.05613 85.9178 5.95213C87.0005 6.82946 87.5791 8.03346 87.6538 9.56412H84.4618C84.4058 8.87346 84.1258 8.32279 83.6218 7.91212C83.1178 7.50146 82.4364 7.29613 81.5778 7.29613C80.7378 7.29613 80.0938 7.45479 79.6458 7.77213C79.1978 8.08946 78.9738 8.50946 78.9738 9.03212C78.9738 9.44279 79.1231 9.78813 79.4218 10.0681C79.7204 10.3481 80.0844 10.5721 80.5138 10.7401C80.9431 10.8895 81.5778 11.0855 82.4178 11.3281C83.5378 11.6268 84.4524 11.9348 85.1618 12.2521C85.8898 12.5508 86.5151 12.9988 87.0378 13.5961C87.5604 14.1935 87.8311 14.9868 87.8498 15.9761C87.8498 16.8535 87.6071 17.6375 87.1218 18.3281C86.6364 19.0188 85.9458 19.5601 85.0498 19.9521C84.1724 20.3441 83.1364 20.5401 81.9418 20.5401Z" fill="#101828"/>
</symbol>

<symbol id="icon-sisyphus" xmlns="http://www.w3.org/2000/svg" width="30" height="49" viewBox="0 0 30 49" fill="none">
  <rect x="0.5" y="19.4883" width="9.59998" height="9.59999" fill="#039855"/>
  <rect x="29.3008" y="29.0879" width="9.6" height="9.59999" transform="rotate(180 29.3008 29.0879)" fill="#027A48"/>
  <path d="M10.0996 19.4877L19.6996 9.8877V19.4877L10.0996 29.0877V19.4877Z" fill="#A6F4C5"/>
  <path d="M19.6992 29.0885L10.0992 38.6885L10.0992 29.0885L19.6992 19.4885L19.6992 29.0885Z" fill="#6CE9A6"/>
  <path d="M0.5 19.4881L19.7 0.288086V9.88807L10.1 19.4881H0.5Z" fill="#32D583"/>
  <path d="M29.3008 29.0881L10.1008 48.2881L10.1008 38.6881L19.7008 29.0881L29.3008 29.0881Z" fill="#12B76A"/>
</symbol>

<symbol id="sisyphus" xmlns="http://www.w3.org/2000/svg" width="127" height="28" viewBox="0 0 127 28" fill="none">
  <path d="M8.20847 22.5679C6.69647 22.5679 5.23113 22.3532 3.81247 21.9239C2.41247 21.4945 1.3018 20.9252 0.480469 20.2159L1.74047 17.3879C2.54313 18.0225 3.52313 18.5452 4.68047 18.9559C5.85647 19.3479 7.03247 19.5439 8.20847 19.5439C9.66446 19.5439 10.7471 19.3105 11.4565 18.8439C12.1845 18.3772 12.5485 17.7612 12.5485 16.9959C12.5485 16.4359 12.3431 15.9785 11.9325 15.6239C11.5405 15.2505 11.0365 14.9612 10.4205 14.7559C9.80447 14.5505 8.96447 14.3172 7.90047 14.0559C6.40713 13.7012 5.1938 13.3465 4.26047 12.9919C3.3458 12.6372 2.55247 12.0865 1.88047 11.3399C1.22714 10.5745 0.900469 9.54788 0.900469 8.25987C0.900469 7.17721 1.1898 6.19721 1.76847 5.31988C2.3658 4.42387 3.25247 3.71454 4.42847 3.19187C5.62313 2.66921 7.07913 2.40787 8.79646 2.40787C9.99113 2.40787 11.1671 2.55721 12.3245 2.85588C13.4818 3.15454 14.4805 3.58388 15.3205 4.14388L14.1725 6.97187C13.3138 6.46788 12.4178 6.08521 11.4845 5.82388C10.5511 5.56254 9.6458 5.43187 8.76847 5.43187C7.33113 5.43187 6.2578 5.67454 5.54847 6.15987C4.8578 6.64521 4.51247 7.28921 4.51247 8.09188C4.51247 8.65188 4.70847 9.10921 5.10047 9.46387C5.51113 9.81854 6.02447 10.0985 6.64047 10.3039C7.25647 10.5092 8.09647 10.7425 9.16047 11.0039C10.6165 11.3399 11.8111 11.6945 12.7445 12.0679C13.6778 12.4225 14.4711 12.9732 15.1245 13.7199C15.7965 14.4665 16.1325 15.4745 16.1325 16.7439C16.1325 17.8265 15.8338 18.8065 15.2365 19.6839C14.6578 20.5612 13.7711 21.2612 12.5765 21.7839C11.3818 22.3065 9.9258 22.5679 8.20847 22.5679Z" fill="#101828"/>
  <path d="M19.4058 7.33587H22.9058V22.2879H19.4058V7.33587ZM21.1698 4.87187C20.5352 4.87187 20.0032 4.67588 19.5738 4.28388C19.1445 3.87321 18.9298 3.36921 18.9298 2.77187C18.9298 2.17454 19.1445 1.67987 19.5738 1.28787C20.0032 0.877208 20.5352 0.671875 21.1698 0.671875C21.8045 0.671875 22.3365 0.867875 22.7658 1.25987C23.1952 1.63321 23.4098 2.10921 23.4098 2.68787C23.4098 3.30387 23.1952 3.82654 22.7658 4.25587C22.3552 4.66654 21.8232 4.87187 21.1698 4.87187Z" fill="#101828"/>
  <path d="M32.1196 22.4839C30.9062 22.4839 29.7209 22.3252 28.5636 22.0079C27.4062 21.6905 26.4823 21.2892 25.7916 20.8039L27.1356 18.1439C27.8076 18.5919 28.6102 18.9559 29.5436 19.2359C30.4956 19.4972 31.4289 19.6279 32.3436 19.6279C34.4342 19.6279 35.4796 19.0772 35.4796 17.9759C35.4796 17.4532 35.2089 17.0892 34.6676 16.8839C34.1449 16.6785 33.2956 16.4825 32.1196 16.2959C30.8876 16.1092 29.8796 15.8945 29.0956 15.6519C28.3302 15.4092 27.6582 14.9892 27.0796 14.3919C26.5196 13.7759 26.2396 12.9265 26.2396 11.8439C26.2396 10.4252 26.8276 9.29588 28.0036 8.45588C29.1982 7.59721 30.8036 7.16788 32.8196 7.16788C33.8462 7.16788 34.8729 7.28921 35.8996 7.53188C36.9262 7.75587 37.7662 8.06387 38.4196 8.45588L37.0756 11.1159C35.8062 10.3692 34.3782 9.99588 32.7916 9.99588C31.7649 9.99588 30.9809 10.1545 30.4396 10.4719C29.9169 10.7705 29.6556 11.1719 29.6556 11.6759C29.6556 12.2359 29.9356 12.6372 30.4956 12.8799C31.0742 13.1039 31.9609 13.3185 33.1556 13.5239C34.3502 13.7105 35.3302 13.9252 36.0956 14.1679C36.8609 14.4105 37.5142 14.8212 38.0556 15.3999C38.6156 15.9785 38.8956 16.7999 38.8956 17.8639C38.8956 19.2639 38.2889 20.3839 37.0756 21.2239C35.8622 22.0639 34.2102 22.4839 32.1196 22.4839Z" fill="#101828"/>
  <path d="M55.6363 7.33587L48.6363 23.4919C47.983 25.1159 47.1896 26.2545 46.2563 26.9079C45.323 27.5799 44.1936 27.9159 42.8683 27.9159C42.1216 27.9159 41.3843 27.7945 40.6563 27.5519C39.9283 27.3092 39.331 26.9732 38.8643 26.5439L40.2643 23.9679C40.6003 24.2852 40.9923 24.5372 41.4403 24.7239C41.907 24.9105 42.3736 25.0039 42.8403 25.0039C43.4563 25.0039 43.9603 24.8452 44.3523 24.5279C44.763 24.2105 45.1363 23.6785 45.4723 22.9319L45.7243 22.3439L39.2003 7.33587H42.8403L47.5443 18.3959L52.2763 7.33587H55.6363Z" fill="#101828"/>
  <path d="M66.1118 7.16788C67.5678 7.16788 68.8651 7.48521 70.0038 8.11987C71.1611 8.75454 72.0664 9.65054 72.7198 10.8079C73.3731 11.9652 73.6998 13.2999 73.6998 14.8119C73.6998 16.3239 73.3731 17.6679 72.7198 18.8439C72.0664 20.0012 71.1611 20.8972 70.0038 21.5319C68.8651 22.1665 67.5678 22.4839 66.1118 22.4839C64.0958 22.4839 62.4998 21.8119 61.3238 20.4679V27.7199H57.8238V7.33587H61.1558V9.29588C61.7345 8.58654 62.4438 8.05454 63.2838 7.69987C64.1425 7.34521 65.0851 7.16788 66.1118 7.16788ZM65.7198 19.4879C67.0078 19.4879 68.0624 19.0585 68.8838 18.1999C69.7238 17.3412 70.1438 16.2119 70.1438 14.8119C70.1438 13.4119 69.7238 12.2825 68.8838 11.4239C68.0624 10.5652 67.0078 10.1359 65.7198 10.1359C64.8798 10.1359 64.1238 10.3319 63.4518 10.7239C62.7798 11.0972 62.2478 11.6385 61.8558 12.3479C61.4638 13.0572 61.2678 13.8785 61.2678 14.8119C61.2678 15.7452 61.4638 16.5665 61.8558 17.2759C62.2478 17.9852 62.7798 18.5359 63.4518 18.9279C64.1238 19.3012 64.8798 19.4879 65.7198 19.4879Z" fill="#101828"/>
  <path d="M85.5031 7.16788C87.3884 7.16788 88.9004 7.71854 90.0391 8.81987C91.1777 9.92121 91.7471 11.5545 91.7471 13.7199V22.2879H88.2471V14.1679C88.2471 12.8612 87.9391 11.8812 87.3231 11.2279C86.7071 10.5559 85.8298 10.2199 84.6911 10.2199C83.4031 10.2199 82.3858 10.6119 81.6391 11.3959C80.8924 12.1612 80.5191 13.2719 80.5191 14.7279V22.2879H77.0191V1.51187H80.5191V9.07188C81.0978 8.45588 81.8071 7.98921 82.6471 7.67188C83.5058 7.33588 84.4577 7.16788 85.5031 7.16788Z" fill="#101828"/>
  <path d="M110.663 7.33587V22.2879H107.331V20.3839C106.771 21.0559 106.071 21.5785 105.231 21.9519C104.391 22.3065 103.486 22.4839 102.515 22.4839C100.518 22.4839 98.9404 21.9332 97.7831 20.8319C96.6444 19.7119 96.0751 18.0599 96.0751 15.8759V7.33587H99.5751V15.3999C99.5751 16.7439 99.8737 17.7519 100.471 18.4239C101.087 19.0772 101.955 19.4039 103.075 19.4039C104.326 19.4039 105.315 19.0212 106.043 18.2559C106.79 17.4719 107.163 16.3519 107.163 14.8959V7.33587H110.663Z" fill="#101828"/>
  <path d="M119.866 22.4839C118.652 22.4839 117.467 22.3252 116.31 22.0079C115.152 21.6905 114.228 21.2892 113.538 20.8039L114.882 18.1439C115.554 18.5919 116.356 18.9559 117.29 19.2359C118.242 19.4972 119.175 19.6279 120.09 19.6279C122.18 19.6279 123.226 19.0772 123.226 17.9759C123.226 17.4532 122.955 17.0892 122.414 16.8839C121.891 16.6785 121.042 16.4825 119.866 16.2959C118.634 16.1092 117.626 15.8945 116.842 15.6519C116.076 15.4092 115.404 14.9892 114.826 14.3919C114.266 13.7759 113.986 12.9265 113.986 11.8439C113.986 10.4252 114.574 9.29588 115.75 8.45588C116.944 7.59721 118.55 7.16788 120.566 7.16788C121.592 7.16788 122.619 7.28921 123.646 7.53188C124.672 7.75587 125.512 8.06387 126.166 8.45588L124.822 11.1159C123.552 10.3692 122.124 9.99588 120.538 9.99588C119.511 9.99588 118.727 10.1545 118.186 10.4719C117.663 10.7705 117.402 11.1719 117.402 11.6759C117.402 12.2359 117.682 12.6372 118.242 12.8799C118.82 13.1039 119.707 13.3185 120.902 13.5239C122.096 13.7105 123.076 13.9252 123.842 14.1679C124.607 14.4105 125.26 14.8212 125.802 15.3999C126.362 15.9785 126.642 16.7999 126.642 17.8639C126.642 19.2639 126.035 20.3839 124.822 21.2239C123.608 22.0639 121.956 22.4839 119.866 22.4839Z" fill="#101828"/>
</symbol>

<symbol id="icon-circooles" xmlns="http://www.w3.org/2000/svg" width="45" height="45" viewBox="0 0 45 45" fill="none">
  <path d="M16.2151 31.7165C24.8939 31.7165 31.9294 24.681 31.9294 16.0022C31.9294 15.0186 31.839 14.0562 31.6661 13.1226C30.7326 12.9497 29.7701 12.8594 28.7865 12.8594C20.1078 12.8594 13.0723 19.8949 13.0723 28.5737C13.0723 29.5573 13.1626 30.5197 13.3355 31.4533C14.269 31.6262 15.2315 31.7165 16.2151 31.7165Z" fill="#175CD3"/>
  <path fill-rule="evenodd" clip-rule="evenodd" d="M13.3347 31.4534C6.03118 30.1008 0.5 23.6975 0.5 16.0024C0.5 7.32361 7.53553 0.288086 16.2143 0.288086C23.9095 0.288086 30.3128 5.81926 31.6653 13.1228C30.7318 12.9499 29.7693 12.8595 28.7857 12.8595C20.107 12.8595 13.0714 19.895 13.0714 28.5738C13.0714 29.5574 13.1618 30.5199 13.3347 31.4534Z" fill="#1570EF"/>
  <path fill-rule="evenodd" clip-rule="evenodd" d="M16.2136 31.7169C24.8924 31.7169 31.9279 24.6814 31.9279 16.0027C31.9279 15.0191 31.8375 14.0566 31.6646 13.123C38.9681 14.4756 44.4993 20.8789 44.4993 28.5741C44.4993 37.2528 37.4638 44.2884 28.785 44.2884C21.0899 44.2884 14.6866 38.7572 13.334 31.4537C14.2675 31.6266 15.23 31.7169 16.2136 31.7169Z" fill="#2E90FA"/>
</symbol>

<symbol id="circooles" xmlns="http://www.w3.org/2000/svg" width="127" height="21" viewBox="0 0 127 21" fill="none">
  <path d="M17.7284 15.1923C17.1684 17.0029 16.1884 18.3563 14.7884 19.2523C13.3884 20.1296 11.755 20.5683 9.88837 20.5683C8.05904 20.5683 6.47237 20.1856 5.12837 19.4203C3.80304 18.6549 2.77637 17.5629 2.04837 16.1442C1.33904 14.7256 0.984375 13.0269 0.984375 11.0483C0.984375 9.06958 1.34837 7.37092 2.07637 5.95225C2.80437 4.53358 3.83104 3.44158 5.15637 2.67625C6.48171 1.91092 8.04037 1.52825 9.83237 1.52825C11.7177 1.52825 13.3324 1.92958 14.6764 2.73225C16.039 3.51625 16.9724 4.71092 17.4764 6.31625L13.9764 7.80025C13.659 6.68025 13.1737 5.88692 12.5204 5.42025C11.867 4.93492 11.027 4.69225 10.0004 4.69225C8.46971 4.69225 7.24704 5.24292 6.33237 6.34425C5.43637 7.42692 4.98837 8.99492 4.98837 11.0483C4.98837 13.0829 5.41771 14.6509 6.27637 15.7523C7.13504 16.8536 8.37637 17.4043 10.0004 17.4043C11.0084 17.4043 11.8764 17.1336 12.6044 16.5923C13.351 16.0509 13.8737 15.2296 14.1724 14.1283L17.7284 15.1923Z" fill="#101828"/>
  <path d="M22.5617 4.27225C20.975 4.27225 20.1817 3.59092 20.1817 2.22825C20.1817 0.846916 20.975 0.15625 22.5617 0.15625C24.1483 0.15625 24.9417 0.846916 24.9417 2.22825C24.9417 3.59092 24.1483 4.27225 22.5617 4.27225ZM24.4657 6.28825V20.2883H20.6297V6.28825H24.4657Z" fill="#101828"/>
  <path d="M28.532 20.2883V6.28825H31.864L32.116 9.03225C32.4707 8.08025 33.0027 7.34292 33.712 6.82025C34.44 6.27892 35.3547 6.00825 36.456 6.00825C37.1093 6.00825 37.6133 6.11092 37.968 6.31625L37.52 9.53625C37.3333 9.48025 37.1 9.43358 36.82 9.39625C36.5587 9.34025 36.2133 9.31225 35.784 9.31225C35.2053 9.31225 34.6547 9.45225 34.132 9.73225C33.628 9.99358 33.208 10.4043 32.872 10.9643C32.536 11.5056 32.368 12.1962 32.368 13.0363V20.2883H28.532Z" fill="#101828"/>
  <path d="M46.4271 6.00825C48.2937 6.00825 49.7404 6.40958 50.7671 7.21225C51.8124 8.01492 52.5031 8.98558 52.8391 10.1243L49.2551 11.4123C48.8817 9.71358 47.9577 8.86425 46.4831 8.86425C45.4191 8.86425 44.5884 9.23758 43.9911 9.98425C43.4124 10.7309 43.1231 11.8416 43.1231 13.3163C43.1231 14.8096 43.4217 15.9203 44.0191 16.6483C44.6351 17.3576 45.4657 17.7123 46.5111 17.7123C48.1351 17.7123 49.1057 16.8816 49.423 15.2203L52.8951 16.3403C52.5777 17.5909 51.8684 18.6083 50.7671 19.3923C49.6844 20.1763 48.2751 20.5683 46.5391 20.5683C45.0831 20.5683 43.8044 20.2789 42.703 19.7003C41.6204 19.1216 40.7804 18.2909 40.1831 17.2083C39.5857 16.1256 39.2871 14.8189 39.2871 13.2883C39.2871 11.7576 39.5857 10.4509 40.1831 9.36825C40.799 8.28558 41.639 7.45492 42.703 6.87625C43.7857 6.29758 45.0271 6.00825 46.4271 6.00825Z" fill="#101828"/>
  <path d="M62.2597 6.00825C63.6597 6.00825 64.9011 6.29758 65.9837 6.87625C67.0664 7.45492 67.9064 8.28558 68.5037 9.36825C69.1197 10.4509 69.4277 11.7576 69.4277 13.2883C69.4277 14.8189 69.1197 16.1256 68.5037 17.2083C67.9064 18.2909 67.0664 19.1216 65.9837 19.7003C64.9011 20.2789 63.6597 20.5683 62.2597 20.5683C60.8411 20.5683 59.5904 20.2789 58.5077 19.7003C57.4437 19.1216 56.6037 18.2909 55.9877 17.2083C55.3904 16.1256 55.0917 14.8189 55.0917 13.2883C55.0917 11.7576 55.3904 10.4509 55.9877 9.36825C56.6037 8.28558 57.4437 7.45492 58.5077 6.87625C59.5904 6.29758 60.8411 6.00825 62.2597 6.00825ZM62.2597 8.86425C61.2144 8.86425 60.3931 9.23758 59.7957 9.98425C59.2171 10.7122 58.9277 11.8136 58.9277 13.2883C58.9277 14.7629 59.2171 15.8736 59.7957 16.6203C60.3931 17.3483 61.2144 17.7123 62.2597 17.7123C63.2864 17.7123 64.0891 17.3483 64.6677 16.6203C65.2651 15.8736 65.5637 14.7629 65.5637 13.2883C65.5637 11.8136 65.2651 10.7122 64.6677 9.98425C64.0891 9.23758 63.2864 8.86425 62.2597 8.86425Z" fill="#101828"/>
  <path d="M79.0215 6.00825C80.4214 6.00825 81.6628 6.29758 82.7454 6.87625C83.8281 7.45492 84.6681 8.28558 85.2654 9.36825C85.8814 10.4509 86.1894 11.7576 86.1894 13.2883C86.1894 14.8189 85.8814 16.1256 85.2654 17.2083C84.6681 18.2909 83.8281 19.1216 82.7454 19.7003C81.6628 20.2789 80.4214 20.5683 79.0215 20.5683C77.6028 20.5683 76.3521 20.2789 75.2695 19.7003C74.2055 19.1216 73.3654 18.2909 72.7495 17.2083C72.1521 16.1256 71.8535 14.8189 71.8535 13.2883C71.8535 11.7576 72.1521 10.4509 72.7495 9.36825C73.3654 8.28558 74.2055 7.45492 75.2695 6.87625C76.3521 6.29758 77.6028 6.00825 79.0215 6.00825ZM79.0215 8.86425C77.9761 8.86425 77.1548 9.23758 76.5574 9.98425C75.9788 10.7122 75.6895 11.8136 75.6895 13.2883C75.6895 14.7629 75.9788 15.8736 76.5574 16.6203C77.1548 17.3483 77.9761 17.7123 79.0215 17.7123C80.0481 17.7123 80.8508 17.3483 81.4294 16.6203C82.0268 15.8736 82.3254 14.7629 82.3254 13.2883C82.3254 11.8136 82.0268 10.7122 81.4294 9.98425C80.8508 9.23758 80.0481 8.86425 79.0215 8.86425Z" fill="#101828"/>
  <path d="M93.1792 0.15625V15.9763C93.1792 16.6296 93.2912 17.0869 93.5152 17.3483C93.7392 17.6096 94.1125 17.7403 94.6352 17.7403C94.9525 17.7403 95.2138 17.7216 95.4192 17.6843C95.6245 17.6469 95.8858 17.5723 96.2032 17.4603L95.8672 19.9803C95.5498 20.1669 95.1485 20.3069 94.6632 20.4003C94.1965 20.5123 93.7298 20.5683 93.2632 20.5683C91.9005 20.5683 90.9018 20.2416 90.2672 19.5883C89.6512 18.9163 89.3432 17.8523 89.3432 16.3963V0.15625H93.1792Z" fill="#101828"/>
  <path d="M104.837 20.5683C102.634 20.5683 100.87 19.9336 99.5446 18.6643C98.2192 17.3763 97.5566 15.5843 97.5566 13.2883C97.5566 11.7576 97.8552 10.4509 98.4526 9.36825C99.0499 8.28558 99.8806 7.45492 100.945 6.87625C102.027 6.29758 103.259 6.00825 104.641 6.00825C106.059 6.00825 107.263 6.29758 108.253 6.87625C109.242 7.43625 109.998 8.21092 110.521 9.20025C111.043 10.1709 111.305 11.2816 111.305 12.5323C111.305 12.9056 111.295 13.2603 111.277 13.5963C111.258 13.9323 111.23 14.2309 111.193 14.4922H101.309C101.458 15.5749 101.831 16.3869 102.429 16.9283C103.045 17.4509 103.838 17.7123 104.809 17.7123C105.63 17.7123 106.293 17.5536 106.797 17.2363C107.301 16.9189 107.693 16.4803 107.973 15.9203L111.025 17.0963C110.577 18.1976 109.793 19.0563 108.673 19.6723C107.553 20.2696 106.274 20.5683 104.837 20.5683ZM104.613 8.83625C102.802 8.83625 101.71 9.83492 101.337 11.8323H107.637C107.525 10.8616 107.207 10.1243 106.685 9.62025C106.181 9.09758 105.49 8.83625 104.613 8.83625Z" fill="#101828"/>
  <path d="M120.155 20.5683C118.737 20.5683 117.439 20.3163 116.263 19.8123C115.106 19.3083 114.163 18.5989 113.435 17.6843L115.647 15.4443C116.095 16.1163 116.693 16.6669 117.439 17.0963C118.186 17.5256 119.073 17.7403 120.099 17.7403C120.827 17.7403 121.406 17.6376 121.835 17.4323C122.283 17.2083 122.507 16.8629 122.507 16.3963C122.507 16.0976 122.405 15.8456 122.199 15.6403C121.994 15.4163 121.583 15.2389 120.967 15.1083L118.503 14.6043C116.879 14.2683 115.722 13.7643 115.031 13.0923C114.359 12.4016 114.023 11.5149 114.023 10.4323C114.023 9.66692 114.247 8.94825 114.695 8.27625C115.162 7.60425 115.853 7.06292 116.767 6.65225C117.682 6.22292 118.821 6.00825 120.183 6.00825C123.021 6.00825 125.055 6.87625 126.287 8.61225L123.991 10.8523C123.581 10.1989 123.039 9.70425 122.367 9.36825C121.714 9.01358 121.023 8.83625 120.295 8.83625C118.653 8.83625 117.831 9.29358 117.831 10.2083C117.831 10.5069 117.962 10.7683 118.223 10.9923C118.485 11.1976 118.961 11.3749 119.651 11.5243L122.507 12.1123C123.889 12.3923 124.878 12.8682 125.475 13.5402C126.073 14.1936 126.371 14.9869 126.371 15.9203C126.371 17.2643 125.83 18.3749 124.747 19.2523C123.683 20.1296 122.153 20.5683 120.155 20.5683Z" fill="#101828"/>
</symbol>

<symbol id="icon-catalog" xmlns="http://www.w3.org/2000/svg" width="45" height="45" viewBox="0 0 45 45" fill="none">
  <path d="M22.5 0.288086C10.3497 0.288086 0.5 10.1378 0.5 22.2881C0.5 34.4384 10.3497 44.2881 22.5 44.2881C33.401 44.2881 42.4502 36.3597 44.1958 25.9548H44.0379C42.4098 32.2806 36.6674 36.9548 29.8333 36.9548C21.7332 36.9548 15.1667 30.3883 15.1667 22.2881C15.1667 14.1879 21.7332 7.62142 29.8333 7.62142C36.6674 7.62142 42.4098 12.2956 44.0379 18.6214H44.1958C42.4502 8.21647 33.401 0.288086 22.5 0.288086Z" fill="#A4BCFD"/>
  <path d="M0.5 22.2881C0.5 10.1378 10.3497 0.288086 22.5 0.288086C33.401 0.288086 42.4502 8.21647 44.1958 18.6214H29.3713C27.7431 12.2956 22.0007 7.62142 15.1667 7.62142C7.06649 7.62142 0.5 14.1879 0.5 22.2881Z" fill="#3538CD"/>
  <path d="M0.5 22.2881C0.5 34.4384 10.3497 44.2881 22.5 44.2881C33.401 44.2881 42.4502 36.3597 44.1958 25.9548H29.3713C27.7431 32.2806 22.0007 36.9548 15.1667 36.9548C7.06649 36.9548 0.5 30.3883 0.5 22.2881Z" fill="#3538CD"/>
</symbol>

<symbol id="catalog" xmlns="http://www.w3.org/2000/svg" width="103" height="28" viewBox="0 0 103 28" fill="none">
  <path d="M17.9396 7.79563C17.3132 3.27148 13.8331 0.646484 9.31889 0.646484C3.99929 0.646484 -0.0078125 4.52433 -0.0078125 11.1067C-0.0078125 17.6792 3.94957 21.5669 9.31889 21.5669C14.1612 21.5669 17.3729 18.4348 17.9396 14.5471L14.2209 14.5272C13.7535 16.9135 11.8047 18.2559 9.36861 18.2559C6.06747 18.2559 3.70099 15.78 3.70099 11.1067C3.70099 6.51296 6.04758 3.95757 9.37855 3.95757C11.8544 3.95757 13.7933 5.35955 14.2209 7.79563H17.9396Z" fill="#101828"/>
  <path d="M25.5536 21.5968C27.9499 21.5968 29.3817 20.4732 30.038 19.1905H30.1573V21.2885H33.6175V11.0669C33.6175 7.03001 30.3263 5.81694 27.413 5.81694C24.2013 5.81694 21.7354 7.24876 20.94 10.0328L24.3008 10.5101C24.6587 9.46609 25.6729 8.5712 27.4329 8.5712C29.1033 8.5712 30.0181 9.42632 30.0181 10.9277V10.9874C30.0181 12.0215 28.9343 12.0712 26.2397 12.3596C23.2766 12.6777 20.4428 13.5627 20.4428 17.003C20.4428 20.0059 22.6403 21.5968 25.5536 21.5968ZM26.4883 18.9519C24.9869 18.9519 23.913 18.2658 23.913 16.9434C23.913 15.5613 25.1161 14.9846 26.7269 14.7559C27.6715 14.6266 29.5607 14.388 30.028 14.0101V15.8098C30.028 17.5101 28.6559 18.9519 26.4883 18.9519Z" fill="#101828"/>
  <path d="M44.8633 6.0158H41.8505V2.35671H38.2511V6.0158H36.0834V8.79989H38.2511V17.2914C38.2312 20.165 40.3192 21.5769 43.0238 21.4973C44.0479 21.4675 44.7539 21.2686 45.1417 21.1394L44.5351 18.3255C44.3363 18.3752 43.9286 18.4647 43.4812 18.4647C42.5763 18.4647 41.8505 18.1465 41.8505 16.6948V8.79989H44.8633V6.0158Z" fill="#101828"/>
  <path d="M52.2685 21.5968C54.6648 21.5968 56.0966 20.4732 56.7528 19.1905H56.8721V21.2885H60.3324V11.0669C60.3324 7.03001 57.0412 5.81694 54.1278 5.81694C50.9162 5.81694 48.4503 7.24876 47.6548 10.0328L51.0156 10.5101C51.3736 9.46609 52.3878 8.5712 54.1477 8.5712C55.8182 8.5712 56.7329 9.42632 56.7329 10.9277V10.9874C56.7329 12.0215 55.6491 12.0712 52.9545 12.3596C49.9915 12.6777 47.1577 13.5627 47.1577 17.003C47.1577 20.0059 49.3551 21.5968 52.2685 21.5968ZM53.2031 18.9519C51.7017 18.9519 50.6278 18.2658 50.6278 16.9434C50.6278 15.5613 51.831 14.9846 53.4417 14.7559C54.3863 14.6266 56.2756 14.388 56.7429 14.0101V15.8098C56.7429 17.5101 55.3707 18.9519 53.2031 18.9519Z" fill="#101828"/>
  <path d="M67.5511 0.924894H63.9517V21.2885H67.5511V0.924894Z" fill="#101828"/>
  <path d="M77.9144 21.5868C82.3888 21.5868 85.2326 18.4348 85.2326 13.7118C85.2326 8.97887 82.3888 5.81694 77.9144 5.81694C73.44 5.81694 70.5962 8.97887 70.5962 13.7118C70.5962 18.4348 73.44 21.5868 77.9144 21.5868ZM77.9343 18.7033C75.4584 18.7033 74.2454 16.4959 74.2454 13.7019C74.2454 10.9078 75.4584 8.67063 77.9343 8.67063C80.3704 8.67063 81.5834 10.9078 81.5834 13.7019C81.5834 16.4959 80.3704 18.7033 77.9343 18.7033Z" fill="#101828"/>
  <path d="M94.9297 27.334C99.0561 27.334 102.099 25.4448 102.099 21.5371V6.0158H98.549V8.54137H98.3501C97.8032 7.43768 96.6598 5.81694 93.9652 5.81694C90.4353 5.81694 87.6612 8.58114 87.6612 13.6025C87.6612 18.584 90.4353 21.0698 93.9552 21.0698C96.5703 21.0698 97.7933 19.6678 98.3501 18.5442H98.5291V21.4377C98.5291 23.6848 97.0376 24.6096 94.9893 24.6096C92.8217 24.6096 91.8672 23.5854 91.4297 22.6905L88.1882 23.476C88.8444 25.6138 91.0419 27.334 94.9297 27.334ZM94.9595 18.2459C92.5831 18.2459 91.3302 16.3965 91.3302 13.5826C91.3302 10.8084 92.5632 8.77006 94.9595 8.77006C97.2763 8.77006 98.549 10.6891 98.549 13.5826C98.549 16.4959 97.2564 18.2459 94.9595 18.2459Z" fill="#101828"/>
</symbol>

<symbol id="icon-quotient" xmlns="http://www.w3.org/2000/svg" width="45" height="45" viewBox="0 0 45 45" fill="none">
  <path fill-rule="evenodd" clip-rule="evenodd" d="M22.5 34.7548C29.3851 34.7548 34.9667 29.1732 34.9667 22.2881C34.9667 15.4029 29.3851 9.82142 22.5 9.82142C15.6148 9.82142 10.0333 15.4029 10.0333 22.2881C10.0333 29.1732 15.6148 34.7548 22.5 34.7548ZM22.5 44.2881C34.6503 44.2881 44.5 34.4384 44.5 22.2881C44.5 10.1378 34.6503 0.288086 22.5 0.288086C10.3497 0.288086 0.5 10.1378 0.5 22.2881C0.5 34.4384 10.3497 44.2881 22.5 44.2881Z" fill="#6938EF"/>
  <path d="M22.752 22.7695C25.0431 20.4784 28.7577 20.4784 31.0488 22.7695L42.4567 34.1774C44.7478 36.4685 44.7478 40.1831 42.4567 42.4742C40.1657 44.7652 36.4511 44.7652 34.16 42.4742L22.752 31.0662C20.461 28.7751 20.461 25.0605 22.752 22.7695Z" fill="#F670C7"/>
  <path d="M25.9551 34.2696L33.2004 41.515C36.6756 39.5768 39.5709 36.7238 41.5605 33.2817L34.3746 26.0957C33.1124 30.0351 29.9441 33.1215 25.9551 34.2696Z" fill="#6519BA"/>
</symbol>

<symbol id="quotient" xmlns="http://www.w3.org/2000/svg" width="131" height="27" viewBox="0 0 131 27" fill="none">
  <path d="M23.0198 24.388C22.3851 25.172 21.6105 25.7693 20.6958 26.18C19.7998 26.5906 18.8105 26.796 17.7278 26.796C16.2718 26.796 14.9558 26.4786 13.7798 25.844C12.6038 25.228 11.2598 24.1266 9.7478 22.54C7.97446 22.316 6.3878 21.7466 4.9878 20.832C3.60646 19.9173 2.5238 18.7413 1.7398 17.304C0.974464 15.848 0.591797 14.2426 0.591797 12.488C0.591797 10.5653 1.04913 8.83862 1.9638 7.30795C2.89713 5.75862 4.1758 4.54529 5.7998 3.66795C7.44246 2.79062 9.28113 2.35195 11.3158 2.35195C13.3505 2.35195 15.1798 2.79062 16.8038 3.66795C18.4278 4.54529 19.7065 5.75862 20.6398 7.30795C21.5731 8.83862 22.0398 10.5653 22.0398 12.488C22.0398 14.7653 21.3958 16.7626 20.1078 18.48C18.8385 20.1973 17.1491 21.392 15.0398 22.064C15.5065 22.5493 15.9545 22.8946 16.3838 23.1C16.8318 23.324 17.3078 23.436 17.8118 23.436C19.0251 23.436 20.0891 22.9506 21.0038 21.98L23.0198 24.388ZM5.1838 12.488C5.1838 13.7013 5.44513 14.784 5.9678 15.736C6.50913 16.688 7.24646 17.4346 8.1798 17.976C9.11313 18.4986 10.1585 18.76 11.3158 18.76C12.4731 18.76 13.5185 18.4986 14.4518 17.976C15.3851 17.4346 16.1131 16.688 16.6358 15.736C17.1771 14.784 17.4478 13.7013 17.4478 12.488C17.4478 11.2746 17.1771 10.192 16.6358 9.23995C16.1131 8.28795 15.3851 7.55062 14.4518 7.02795C13.5185 6.48662 12.4731 6.21595 11.3158 6.21595C10.1585 6.21595 9.11313 6.48662 8.1798 7.02795C7.24646 7.55062 6.50913 8.28795 5.9678 9.23995C5.44513 10.192 5.1838 11.2746 5.1838 12.488Z" fill="#101828"/>
  <path d="M40.3168 7.22395V22.288H36.1728V20.496C35.5941 21.1493 34.9035 21.6533 34.1008 22.008C33.2981 22.344 32.4301 22.512 31.4968 22.512C29.5181 22.512 27.9501 21.9426 26.7928 20.804C25.6355 19.6653 25.0568 17.976 25.0568 15.736V7.22395H29.4248V15.092C29.4248 17.5186 30.4421 18.732 32.4768 18.732C33.5221 18.732 34.3621 18.396 34.9968 17.724C35.6315 17.0333 35.9488 16.016 35.9488 14.672V7.22395H40.3168Z" fill="#101828"/>
  <path d="M51.5315 22.512C49.9448 22.512 48.5168 22.1853 47.2475 21.532C45.9968 20.86 45.0168 19.936 44.3075 18.76C43.5981 17.584 43.2435 16.2493 43.2435 14.756C43.2435 13.2626 43.5981 11.928 44.3075 10.752C45.0168 9.57595 45.9968 8.66129 47.2475 8.00795C48.5168 7.33595 49.9448 6.99995 51.5315 6.99995C53.1181 6.99995 54.5368 7.33595 55.7875 8.00795C57.0381 8.66129 58.0181 9.57595 58.7275 10.752C59.4368 11.928 59.7915 13.2626 59.7915 14.756C59.7915 16.2493 59.4368 17.584 58.7275 18.76C58.0181 19.936 57.0381 20.86 55.7875 21.532C54.5368 22.1853 53.1181 22.512 51.5315 22.512ZM51.5315 18.928C52.6515 18.928 53.5661 18.5546 54.2755 17.808C55.0035 17.0426 55.3675 16.0253 55.3675 14.756C55.3675 13.4866 55.0035 12.4786 54.2755 11.732C53.5661 10.9666 52.6515 10.584 51.5315 10.584C50.4115 10.584 49.4875 10.9666 48.7595 11.732C48.0315 12.4786 47.6675 13.4866 47.6675 14.756C47.6675 16.0253 48.0315 17.0426 48.7595 17.808C49.4875 18.5546 50.4115 18.928 51.5315 18.928Z" fill="#101828"/>
  <path d="M72.4271 21.56C71.9978 21.8773 71.4658 22.12 70.8311 22.288C70.2151 22.4373 69.5618 22.512 68.8711 22.512C67.0791 22.512 65.6884 22.0546 64.6991 21.14C63.7284 20.2253 63.2431 18.8813 63.2431 17.108V10.92H60.9191V7.55995H63.2431V3.89195H67.6111V7.55995H71.3631V10.92H67.6111V17.052C67.6111 17.6866 67.7698 18.1813 68.0871 18.536C68.4231 18.872 68.8898 19.04 69.4871 19.04C70.1778 19.04 70.7658 18.8533 71.2511 18.48L72.4271 21.56Z" fill="#101828"/>
  <path d="M74.8791 7.22395H79.2471V22.288H74.8791V7.22395ZM77.0631 5.12395C76.2604 5.12395 75.6071 4.89062 75.1031 4.42395C74.5991 3.95729 74.3471 3.37862 74.3471 2.68795C74.3471 1.99729 74.5991 1.41862 75.1031 0.951954C75.6071 0.485287 76.2604 0.251953 77.0631 0.251953C77.8657 0.251953 78.5191 0.475954 79.0231 0.923954C79.5271 1.37195 79.7791 1.93195 79.7791 2.60395C79.7791 3.33195 79.5271 3.93862 79.0231 4.42395C78.5191 4.89062 77.8657 5.12395 77.0631 5.12395Z" fill="#101828"/>
  <path d="M98.057 14.812C98.057 14.868 98.029 15.26 97.973 15.988H86.577C86.7823 16.9213 87.2676 17.6586 88.033 18.2C88.7983 18.7413 89.7503 19.012 90.889 19.012C91.673 19.012 92.3636 18.9 92.961 18.676C93.577 18.4333 94.1463 18.06 94.669 17.556L96.993 20.076C95.5743 21.7 93.5023 22.512 90.7769 22.512C89.0783 22.512 87.5756 22.1853 86.269 21.532C84.9623 20.86 83.9543 19.936 83.2449 18.76C82.5356 17.584 82.181 16.2493 82.181 14.756C82.181 13.2813 82.5263 11.956 83.2169 10.78C83.9263 9.58529 84.8876 8.66129 86.101 8.00795C87.333 7.33595 88.7049 6.99995 90.2169 6.99995C91.6916 6.99995 93.0263 7.31729 94.2209 7.95195C95.4156 8.58662 96.349 9.50129 97.021 10.696C97.7116 11.872 98.057 13.244 98.057 14.812ZM90.2449 10.304C89.2556 10.304 88.4249 10.584 87.753 11.144C87.081 11.704 86.6703 12.4693 86.521 13.44H93.9409C93.7916 12.488 93.381 11.732 92.709 11.172C92.037 10.5933 91.2156 10.304 90.2449 10.304Z" fill="#101828"/>
  <path d="M110.121 6.99995C111.988 6.99995 113.49 7.55996 114.629 8.67995C115.786 9.79995 116.365 11.4613 116.365 13.664V22.288H111.997V14.336C111.997 13.1413 111.736 12.2546 111.213 11.676C110.69 11.0786 109.934 10.78 108.945 10.78C107.844 10.78 106.966 11.1253 106.313 11.816C105.66 12.488 105.333 13.496 105.333 14.84V22.288H100.965V7.22395H105.137V8.98795C105.716 8.35329 106.434 7.86795 107.293 7.53195C108.152 7.17729 109.094 6.99995 110.121 6.99995Z" fill="#101828"/>
  <path d="M130.04 21.56C129.611 21.8773 129.079 22.12 128.444 22.288C127.828 22.4373 127.175 22.512 126.484 22.512C124.692 22.512 123.302 22.0546 122.312 21.14C121.342 20.2253 120.856 18.8813 120.856 17.108V10.92H118.532V7.55995H120.856V3.89195H125.224V7.55995H128.976V10.92H125.224V17.052C125.224 17.6866 125.383 18.1813 125.7 18.536C126.036 18.872 126.503 19.04 127.1 19.04C127.791 19.04 128.379 18.8533 128.864 18.48L130.04 21.56Z" fill="#101828"/>
</symbol>


<!-- иконки для секции Our Service -->

<symbol id="Chart" xmlns="http://www.w3.org/2000/svg" width="49" height="49" viewBox="0 0 49 49" fill="none">
  <path d="M34.1241 4.81738C40.9261 4.81738 44.7661 8.67538 44.7861 15.4774V34.1574C44.7861 40.9574 40.9261 44.8174 34.1241 44.8174H15.4461C8.64413 44.8174 4.78613 40.9574 4.78613 34.1574V15.4774C4.78613 8.67538 8.64413 4.81738 15.4461 4.81738H34.1241ZM25.7861 13.0774C25.2241 12.7374 24.5441 12.7374 24.0061 13.0774C23.4641 13.4154 23.1661 14.0374 23.2241 14.6574V35.0374C23.3261 35.8974 24.0441 36.5374 24.8841 36.5374C25.7461 36.5374 26.4641 35.8974 26.5441 35.0374V14.6574C26.6241 14.0374 26.3261 13.4154 25.7861 13.0774ZM16.4461 19.6374C15.9061 19.2974 15.2241 19.2974 14.6861 19.6374C14.1441 19.9774 13.8461 20.5954 13.9061 21.2174V35.0374C13.9841 35.8974 14.7041 36.5374 15.5641 36.5374C16.4261 36.5374 17.1441 35.8974 17.2241 35.0374V21.2174C17.2861 20.5954 16.9841 19.9774 16.4461 19.6374ZM34.9641 26.8974C34.4261 26.5574 33.7461 26.5574 33.1861 26.8974C32.6441 27.2374 32.3461 27.8354 32.4261 28.4774V35.0374C32.5061 35.8974 33.2241 36.5374 34.0861 36.5374C34.9261 36.5374 35.6441 35.8974 35.7461 35.0374V28.4774C35.8041 27.8354 35.5061 27.2374 34.9641 26.8974Z" fill="#F0899C"/>
</symbol>

<symbol id="Graph" xmlns="http://www.w3.org/2000/svg" width="48" height="49" viewBox="0 0 48 49" fill="none">
  <path d="M17.9121 10.501C18.8924 10.3176 19.8752 10.807 20.3029 11.6916C20.4094 11.8521 20.4946 12.0253 20.5565 12.2069C20.8282 16.4006 21.118 20.5232 21.3896 24.6458C21.3835 25.0744 21.4508 25.5009 21.5889 25.9075C21.9139 26.7075 22.7227 27.2151 23.5993 27.1691L36.9116 26.3162L37.0022 26.3517L37.2452 26.3692C37.7264 26.4308 38.1751 26.6505 38.5157 26.9961C38.9131 27.3994 39.131 27.941 39.1216 28.5019C38.5967 36.1461 32.9923 42.533 25.3655 44.1785C17.7388 45.824 9.92035 42.3329 6.17556 35.6098C5.07443 33.6734 4.37861 31.5408 4.12891 29.3371C4.03206 28.684 3.98966 28.0244 4.00212 27.3646C4.02736 19.2362 9.81455 12.2202 17.9121 10.501ZM25.8271 4.58368C34.9687 4.85734 42.6087 11.4936 43.9934 20.3633C44.0022 20.4163 44.0022 20.4703 43.9934 20.5232L43.9909 20.7736C43.9609 21.1046 43.825 21.4203 43.5993 21.6737C43.3171 21.9905 42.918 22.184 42.4901 22.2114L27.1311 23.2242L26.8781 23.2293C26.4589 23.2088 26.0569 23.0458 25.7437 22.7639C25.3679 22.4256 25.1549 21.9476 25.1569 21.4472L24.1245 6.36066V6.11189C24.1433 5.68758 24.3334 5.28804 24.6528 5.00136C24.9721 4.71468 25.3946 4.5644 25.8271 4.58368Z" fill="#F0899C"/>
</symbol>

<symbol id="Filter" xmlns="http://www.w3.org/2000/svg" width="49" height="49" viewBox="0 0 49 49" fill="none">
  <path d="M19.3454 31.9959L29.0545 32.0256C29.6599 32.0278 30.15 32.5347 30.15 33.1562V38.6183C30.15 39.2419 29.7958 39.8062 29.2439 40.0671L20.4306 44.2055C20.2246 44.301 20.0064 44.3477 19.7881 44.3477C19.4977 44.3477 19.2074 44.2628 18.9541 44.0952C18.5114 43.8025 18.2437 43.2977 18.2437 42.7568V33.1265C18.2437 32.5008 18.7379 31.9938 19.3454 31.9959ZM40.5288 4.34766C42.8804 4.34766 44.7852 6.30976 44.7852 8.73217V11.7952C44.7852 12.9703 44.326 14.0988 43.5105 14.9218L30.5005 28.0817C30.276 28.3108 29.9713 28.4381 29.6562 28.436L18.763 28.402C18.4315 28.402 18.1164 28.2599 17.8899 28.0117L5.93419 14.8624C5.19494 14.05 4.78516 12.9767 4.78516 11.863V8.73429C4.78516 6.31188 6.68992 4.34766 9.04153 4.34766H40.5288Z" fill="#F0899C"/>
</symbol>

<symbol id="Work" xmlns="http://www.w3.org/2000/svg" width="48" height="49" viewBox="0 0 48 49" fill="none">
  <path d="M43.6198 25.7438C43.7639 25.8248 43.7927 25.9965 43.7985 26.062L43.7999 26.0881L43.6398 36.4171C43.6398 40.5373 40.4474 43.8973 36.4275 44.1033L36.036 44.1133H11.944C7.87319 44.1133 4.55356 40.8821 4.35006 36.8134L4.34017 36.4171L4.2001 26.0881C4.2001 26.0881 4.2001 25.845 4.38019 25.7438C4.54027 25.6425 4.74037 25.764 4.76038 25.7843C8.8024 28.4982 13.6648 30.3007 18.7674 31.0501C19.4877 31.1513 20.2081 30.6855 20.4082 29.9564C20.8209 28.3994 22.0954 27.3409 23.6545 27.2147L23.97 27.202H24.03C25.7309 27.202 27.1516 28.2956 27.5918 29.9564C27.7919 30.6855 28.5123 31.1513 29.2326 31.0501C34.3352 30.3007 39.1976 28.4982 43.2396 25.7843C43.2396 25.7843 43.2796 25.764 43.3197 25.7438C43.3997 25.7032 43.5198 25.683 43.6198 25.7438ZM23.99 30.0982C23.238 30.0982 22.6036 30.6768 22.5031 31.4128L22.4892 31.6171V34.2298C22.4892 35.0804 23.1696 35.7488 23.99 35.7488C24.7604 35.7488 25.3794 35.1872 25.4773 34.4384L25.4907 34.2298V31.6171C25.4907 30.7868 24.8304 30.0982 23.99 30.0982ZM26.5713 4.11328C29.5728 4.11328 32.034 6.40188 32.4142 9.33857H36.3762C40.5783 9.33857 44 12.8018 44 17.055C44 17.055 43.8799 18.8555 43.8399 21.3628C43.8359 21.5613 43.7399 21.7557 43.5818 21.8732C42.6193 22.5841 41.7389 23.1714 41.6588 23.2119C38.3372 25.4398 34.4772 27.0073 30.3652 27.7871C30.097 27.8397 29.8329 27.7 29.6968 27.461C28.5443 25.4641 26.3912 24.1638 23.99 24.1638C21.6048 24.1638 19.4317 25.4499 18.2451 27.4489C18.1071 27.6838 17.8469 27.8195 17.5808 27.7689C13.5028 26.9871 9.64282 25.4215 6.34117 23.2322L4.42021 21.8955C4.26013 21.7942 4.16008 21.6119 4.16008 21.4094C4.10005 20.3765 4 17.055 4 17.055C4 12.8018 7.42171 9.33857 11.6238 9.33857H15.5658C15.946 6.40188 18.4072 4.11328 21.4087 4.11328H26.5713ZM26.5713 7.15124H21.4087C20.068 7.15124 18.9275 8.08288 18.6073 9.33857H29.3727C29.0525 8.08288 27.912 7.15124 26.5713 7.15124Z" fill="#F0899C"/>
</symbol>

<symbol id="Heart" xmlns="http://www.w3.org/2000/svg" width="49" height="49" viewBox="0 0 49 49" fill="none">
  <path d="M17.3447 5.88019C18.6047 5.91851 19.8247 6.13851 21.0067 6.54051H21.1247C21.2047 6.57851 21.2647 6.62051 21.3047 6.65851C21.7467 6.80051 22.1647 6.96051 22.5647 7.18051L23.3247 7.52051C23.6247 7.68051 23.9847 7.97851 24.1847 8.10051C24.3847 8.21851 24.6047 8.34051 24.7847 8.47851C27.0067 6.78051 29.7047 5.86051 32.4847 5.88019C33.7467 5.88019 35.0067 6.05851 36.2047 6.46051C43.5867 8.86051 46.2467 16.9605 44.0247 24.0405C42.7647 27.6585 40.7047 30.9605 38.0067 33.6585C34.1447 37.3985 29.9067 40.7185 25.3447 43.5785L24.8447 43.8805L24.3247 43.5585C19.7467 40.7185 15.4847 37.3985 11.5867 33.6385C8.9067 30.9405 6.8447 27.6585 5.5647 24.0405C3.3047 16.9605 5.9647 8.86051 13.4267 6.41851C14.0067 6.21851 14.6047 6.07851 15.2047 6.00051H15.4447C16.0067 5.91851 16.5647 5.88019 17.1247 5.88019H17.3447ZM35.1647 12.2005C34.3447 11.9185 33.4447 12.3605 33.1447 13.2005C32.8647 14.0405 33.3047 14.9605 34.1447 15.2585C35.4267 15.7385 36.2847 17.0005 36.2847 18.3985V18.4605C36.2467 18.9185 36.3847 19.3605 36.6647 19.7005C36.9447 20.0405 37.3647 20.2385 37.8047 20.2805C38.6247 20.2585 39.3247 19.6005 39.3847 18.7585V18.5205C39.4447 15.7185 37.7467 13.1805 35.1647 12.2005Z" fill="#F0899C"/>
</symbol>

<symbol id="Activity" xmlns="http://www.w3.org/2000/svg" width="48" height="49" viewBox="0 0 48 49" fill="none">
  <path d="M30.8995 8.20513C30.8195 8.70513 30.7795 9.20513 30.7795 9.70513C30.7795 14.2051 34.4195 17.8431 38.8995 17.8431C39.3995 17.8431 39.8795 17.7851 40.3795 17.7051V33.8431C40.3795 40.6251 36.3795 44.6451 29.5795 44.6451H14.8015C7.99951 44.6451 3.99951 40.6251 3.99951 33.8431V19.0451C3.99951 12.2451 7.99951 8.20513 14.8015 8.20513H30.8995ZM31.3015 20.3651C30.7595 20.3051 30.2215 20.5451 29.8995 20.9851L25.0615 27.2451L19.5195 22.8851C19.1795 22.6251 18.7795 22.5231 18.3795 22.5651C17.9815 22.6251 17.6215 22.8431 17.3795 23.1631L11.4615 30.8651L11.3395 31.0451C10.9995 31.6831 11.1595 32.5031 11.7595 32.9451C12.0395 33.1251 12.3395 33.2451 12.6795 33.2451C13.1415 33.2651 13.5795 33.0231 13.8595 32.6451L18.8795 26.1831L24.5795 30.4651L24.7595 30.5831C25.3995 30.9231 26.1995 30.7651 26.6595 30.1631L32.4395 22.7051L32.3595 22.7451C32.6795 22.3051 32.7395 21.7451 32.5195 21.2451C32.3015 20.7451 31.8195 20.4051 31.3015 20.3651ZM39.1797 4.64453C41.8397 4.64453 43.9997 6.80453 43.9997 9.46453C43.9997 12.1245 41.8397 14.2845 39.1797 14.2845C36.5197 14.2845 34.3597 12.1245 34.3597 9.46453C34.3597 6.80453 36.5197 4.64453 39.1797 4.64453Z" fill="#F0899C"/>
</symbol>


<!-- голубая стрелка вправо -->

<symbol id="rightАrrow" xmlns="http://www.w3.org/2000/svg" width="24" height="24" viewBox="0 0 24 24" fill="none">
  <g clip-path="url(#clip0_16_6326)">
    <path d="M14.4 2.40039L12.72 4.08039L19.44 10.8004H0L0 13.2004H19.44L12.72 19.9204L14.4 21.6004L24 12.0004L14.4 2.40039Z" fill="#00B5E2"/>
  </g>
  <defs>
    <clipPath id="clip0_16_6326">
      <rect width="24" height="24" fill="white"/>
    </clipPath>
  </defs>
</symbol>


<!-- иконки для секции Our Solutions -->

<symbol id="mission" xmlns="http://www.w3.org/2000/svg" width="37" height="36" viewBox="0 0 37 36" fill="none">
  <g clip-path="url(#clip0_16_5912)">
    <path d="M36.0971 34.7293L28.6324 14.8234C28.5795 14.6117 28.3677 14.5058 28.1559 14.5058C27.9442 14.5058 27.6795 14.6117 27.6265 14.8234L24.503 23.0293L17.9912 10.4293V8.04694H24.8207C24.9795 8.04694 25.0854 7.994 25.1912 7.88812L28.3148 4.65871C28.5265 4.44694 28.5265 4.1293 28.3148 3.91753L25.1912 0.68812C25.1383 0.582238 25.0324 0.529297 24.8736 0.529297H17.4618C17.1442 0.529297 16.9324 0.741062 16.9324 1.05871V10.4293L10.5265 22.9234L8.88536 19.1117C8.77947 18.8999 8.62065 18.794 8.40889 18.794C8.19712 18.794 7.98536 18.8999 7.93241 19.1117L1.26183 34.7293C1.20888 34.8881 1.20888 35.0999 1.31477 35.2058C1.42065 35.3117 1.57947 35.4705 1.7383 35.4705H35.6207C35.7795 35.4705 35.9383 35.3646 36.0442 35.2587C36.1501 35.0999 36.203 34.9411 36.0971 34.7293ZM27.2559 4.28812L24.6618 6.98812H17.9912V1.58812H24.6089L27.2559 4.28812ZM8.40889 20.6999L14.2854 34.4117H2.53241L8.40889 20.6999ZM15.3971 34.4117L11.0559 24.194L17.4618 11.6999L29.1618 34.4117C24.3442 34.4117 20.4795 34.4117 15.3971 34.4117ZM30.3795 34.4117L25.1912 24.2999L28.1559 16.4646L34.8795 34.4117H30.3795Z" fill="#F0899C"/>
    <path d="M20.7971 5.87615C20.903 5.98203 21.0089 6.03497 21.1677 6.08791C21.3265 6.08791 21.4324 6.03497 21.5383 5.98203L24.5559 3.38791C24.7677 3.17615 24.8206 2.8585 24.6089 2.64673C24.3971 2.43497 24.0795 2.38203 23.8677 2.59379L21.2736 4.76438L20.4795 3.81144C20.2677 3.59968 19.9501 3.54673 19.7383 3.7585C19.5265 3.97026 19.4736 4.28791 19.6853 4.49968L20.7971 5.87615Z" fill="#F0899C"/>
    <path d="M25.7207 32.3465C25.8795 32.6112 26.1972 32.7171 26.4619 32.5583C26.7266 32.3995 26.8324 32.0818 26.6736 31.8171L20.5324 20.6995C20.3736 20.4348 20.056 20.3289 19.7913 20.4877C19.5266 20.6465 19.4207 20.9642 19.5795 21.2289L25.7207 32.3465Z" fill="#F0899C"/>
  </g>
  <defs>
    <clipPath id="clip0_16_5912">
      <rect width="36" height="36" fill="white" transform="translate(0.679443)"/>
    </clipPath>
  </defs>
</symbol>

<symbol id="idea" xmlns="http://www.w3.org/2000/svg" width="37" height="36" viewBox="0 0 37 36" fill="none">
  <path d="M25.0554 9.18608C24.0518 8.28117 22.8664 7.60113 21.5787 7.19148C20.2909 6.78184 18.9305 6.65205 17.5885 6.81081C15.563 7.04215 13.6645 7.91517 12.1704 9.30232C10.6764 10.6895 9.6651 12.518 9.28429 14.5209C8.90349 16.5237 9.17314 18.5958 10.0539 20.4345C10.9346 22.2731 12.3802 23.782 14.1795 24.7406V30.3755C14.1798 30.6737 14.2984 30.9597 14.5093 31.1706C14.7202 31.3815 15.0062 31.5002 15.3045 31.5005H16.4295V32.6255C16.4298 32.9237 16.5484 33.2097 16.7593 33.4206C16.9702 33.6315 17.2562 33.7502 17.5545 33.7505H19.8045C20.1028 33.7502 20.3887 33.6315 20.5997 33.4206C20.8106 33.2097 20.9292 32.9237 20.9295 32.6255V31.5005H22.0545C22.3528 31.5002 22.6387 31.3815 22.8497 31.1706C23.0606 30.9597 23.1792 30.6737 23.1795 30.3755V24.7408C24.5371 24.0178 25.7001 22.9776 26.5695 21.7087C27.4389 20.4398 27.9891 18.9797 28.1733 17.4526C28.3575 15.9255 28.1702 14.3765 27.6274 12.9373C27.0845 11.4981 26.2022 10.2112 25.0554 9.18608ZM22.0545 27.0005V28.1255H15.3045V27.0005H22.0545ZM19.8053 32.6255H17.5545V31.5005H19.8048L19.8053 32.6255ZM20.367 30.3755H15.3045V29.2505H22.0545V30.3755H20.367ZM22.3703 23.8911C22.2756 23.9372 22.1957 24.0091 22.1399 24.0984C22.0841 24.1878 22.0545 24.291 22.0545 24.3964V25.8755H19.242V23.2959L20.7647 21.7731C20.8671 21.6671 20.9238 21.525 20.9226 21.3775C20.9213 21.23 20.8621 21.0889 20.7578 20.9846C20.6535 20.8803 20.5124 20.8212 20.365 20.8199C20.2175 20.8186 20.0754 20.8753 19.9693 20.9778L18.6795 22.2675L17.3897 20.9778C17.2836 20.8753 17.1415 20.8186 16.994 20.8199C16.8465 20.8212 16.7054 20.8803 16.6011 20.9846C16.4969 21.0889 16.4377 21.23 16.4364 21.3775C16.4351 21.525 16.4918 21.6671 16.5943 21.7731L18.117 23.2959V25.8755H15.3045V24.3964C15.3045 24.291 15.2749 24.1878 15.2191 24.0984C15.1632 24.0091 15.0834 23.9372 14.9886 23.8911C13.3466 23.0936 12.0077 21.7848 11.1732 20.1613C10.3386 18.5378 10.0535 16.6873 10.3606 14.8879C10.6677 13.0885 11.5504 11.4373 12.8762 10.1825C14.202 8.92769 15.8991 8.13702 17.7127 7.92928C18.0376 7.893 18.3642 7.87474 18.691 7.87461C20.7645 7.86842 22.7659 8.63477 24.305 10.0242C25.3368 10.9463 26.1256 12.1083 26.6019 13.4074C27.0782 14.7066 27.2273 16.1031 27.0361 17.4736C26.8449 18.844 26.3192 20.1464 25.5055 21.2655C24.6918 22.3847 23.615 23.2864 22.3703 23.8909V23.8911Z" fill="#F0899C"/>
  <path d="M18.6794 5.625C18.8286 5.625 18.9717 5.56574 19.0772 5.46025C19.1827 5.35476 19.2419 5.21168 19.2419 5.0625V2.8125C19.2419 2.66332 19.1827 2.52024 19.0772 2.41475C18.9717 2.30926 18.8286 2.25 18.6794 2.25C18.5303 2.25 18.3872 2.30926 18.2817 2.41475C18.1762 2.52024 18.1169 2.66332 18.1169 2.8125V5.0625C18.1169 5.21168 18.1762 5.35476 18.2817 5.46025C18.3872 5.56574 18.5303 5.625 18.6794 5.625Z" fill="#F0899C"/>
  <path d="M10.3268 8.75545C10.3787 8.80918 10.4407 8.85203 10.5094 8.88151C10.578 8.91099 10.6518 8.92651 10.7265 8.92716C10.8012 8.9278 10.8752 8.91357 10.9444 8.88529C11.0135 8.85701 11.0763 8.81524 11.1291 8.76242C11.1819 8.70961 11.2237 8.64681 11.252 8.57768C11.2803 8.50855 11.2945 8.43448 11.2939 8.35979C11.2932 8.2851 11.2777 8.21129 11.2482 8.14266C11.2187 8.07404 11.1759 8.01197 11.1222 7.96008L9.53106 6.36899C9.47918 6.31527 9.41711 6.27241 9.34848 6.24293C9.27985 6.21345 9.20604 6.19794 9.13135 6.19729C9.05666 6.19664 8.98259 6.21087 8.91347 6.23915C8.84434 6.26744 8.78153 6.3092 8.72872 6.36202C8.6759 6.41483 8.63414 6.47764 8.60585 6.54677C8.57757 6.6159 8.56334 6.68997 8.56399 6.76465C8.56464 6.83934 8.58015 6.91315 8.60963 6.98178C8.63911 7.05041 8.68196 7.11248 8.73569 7.16437L10.3268 8.75545Z" fill="#F0899C"/>
  <path d="M7.42944 15.75H5.17944C5.03026 15.75 4.88719 15.8093 4.7817 15.9148C4.67621 16.0202 4.61694 16.1633 4.61694 16.3125C4.61694 16.4617 4.67621 16.6048 4.7817 16.7102C4.88719 16.8157 5.03026 16.875 5.17944 16.875H7.42944C7.57863 16.875 7.7217 16.8157 7.82719 16.7102C7.93268 16.6048 7.99194 16.4617 7.99194 16.3125C7.99194 16.1633 7.93268 16.0202 7.82719 15.9148C7.7217 15.8093 7.57863 15.75 7.42944 15.75Z" fill="#F0899C"/>
  <path d="M10.3268 23.8698L8.73569 25.4609C8.68196 25.5128 8.63911 25.5749 8.60963 25.6435C8.58015 25.7121 8.56464 25.7859 8.56399 25.8606C8.56334 25.9353 8.57757 26.0094 8.60585 26.0785C8.63414 26.1476 8.6759 26.2104 8.72872 26.2632C8.78153 26.3161 8.84434 26.3578 8.91347 26.3861C8.98259 26.4144 9.05666 26.4286 9.13135 26.428C9.20604 26.4273 9.27985 26.4118 9.34848 26.3823C9.41711 26.3529 9.47918 26.31 9.53106 26.2563L11.1222 24.6652C11.2246 24.5591 11.2813 24.417 11.28 24.2695C11.2787 24.122 11.2196 23.981 11.1153 23.8767C11.011 23.7724 10.8699 23.7132 10.7224 23.7119C10.575 23.7107 10.4329 23.7674 10.3268 23.8698Z" fill="#F0899C"/>
  <path d="M27.8278 6.36899L26.2367 7.96008C26.1829 8.01197 26.1401 8.07404 26.1106 8.14266C26.0811 8.21129 26.0656 8.2851 26.065 8.35979C26.0643 8.43448 26.0785 8.50855 26.1068 8.57768C26.1351 8.64681 26.1769 8.70961 26.2297 8.76242C26.2825 8.81524 26.3453 8.85701 26.4144 8.88529C26.4836 8.91357 26.5576 8.9278 26.6323 8.92716C26.707 8.92651 26.7808 8.91099 26.8495 8.88151C26.9181 8.85203 26.9802 8.80918 27.032 8.75545L28.6231 7.16437C28.6769 7.11248 28.7197 7.05041 28.7492 6.98178C28.7787 6.91315 28.7942 6.83934 28.7948 6.76465C28.7955 6.68997 28.7813 6.6159 28.753 6.54677C28.7247 6.47764 28.6829 6.41483 28.6301 6.36202C28.5773 6.3092 28.5145 6.26744 28.4454 6.23915C28.3762 6.21087 28.3022 6.19664 28.2275 6.19729C28.1528 6.19794 28.079 6.21345 28.0103 6.24293C27.9417 6.27241 27.8796 6.31527 27.8278 6.36899Z" fill="#F0899C"/>
  <path d="M27.032 23.8698C26.9259 23.7674 26.7838 23.7107 26.6363 23.7119C26.4889 23.7132 26.3478 23.7724 26.2435 23.8767C26.1392 23.981 26.08 24.122 26.0788 24.2695C26.0775 24.417 26.1342 24.5591 26.2366 24.6652L27.8277 26.2563C27.9338 26.3587 28.0759 26.4154 28.2234 26.4142C28.3709 26.4129 28.512 26.3537 28.6162 26.2494C28.7205 26.1451 28.7797 26.0041 28.781 25.8566C28.7823 25.7091 28.7256 25.567 28.6231 25.4609L27.032 23.8698Z" fill="#F0899C"/>
  <path d="M32.1794 15.75H29.9294C29.7803 15.75 29.6372 15.8093 29.5317 15.9148C29.4262 16.0202 29.3669 16.1633 29.3669 16.3125C29.3669 16.4617 29.4262 16.6048 29.5317 16.7102C29.6372 16.8157 29.7803 16.875 29.9294 16.875H32.1794C32.3286 16.875 32.4717 16.8157 32.5772 16.7102C32.6827 16.6048 32.7419 16.4617 32.7419 16.3125C32.7419 16.1633 32.6827 16.0202 32.5772 15.9148C32.4717 15.8093 32.3286 15.75 32.1794 15.75Z" fill="#F0899C"/>
</symbol>

<symbol id="target" xmlns="http://www.w3.org/2000/svg" width="37" height="36" viewBox="0 0 37 36" fill="none">
  <path d="M5.7089 12.6289C5.61855 12.6289 5.52999 12.6038 5.45314 12.5563C5.37628 12.5088 5.31418 12.4408 5.27377 12.36C5.23337 12.2792 5.21626 12.1887 5.22438 12.0987C5.23249 12.0088 5.2655 11.9228 5.31971 11.8505C5.62516 11.4506 5.95601 11.0707 6.3102 10.7131C6.40197 10.6283 6.52286 10.5821 6.64779 10.584C6.77272 10.586 6.89212 10.6359 6.98125 10.7234C7.07038 10.811 7.1224 10.9295 7.12653 11.0544C7.13066 11.1793 7.08659 11.3009 7.00344 11.3942C6.67891 11.7215 6.37584 12.0694 6.09614 12.4358C6.05087 12.4957 5.99236 12.5443 5.92518 12.5778C5.858 12.6113 5.78397 12.6288 5.7089 12.6289Z" fill="#F0899C"/>
  <path d="M15.7749 33.2713C12.39 33.2706 9.13317 31.9767 6.67072 29.6542C4.20828 27.3316 2.72628 24.156 2.52789 20.7768C2.52425 20.713 2.53323 20.649 2.55431 20.5886C2.57539 20.5281 2.60817 20.4725 2.65077 20.4247C2.69337 20.377 2.74496 20.3381 2.80259 20.3103C2.86022 20.2825 2.92276 20.2663 2.98665 20.2626C3.05053 20.259 3.11451 20.268 3.17493 20.289C3.23534 20.3101 3.29102 20.3429 3.33877 20.3855C3.38652 20.4281 3.42541 20.4797 3.45322 20.5373C3.48103 20.595 3.49722 20.6575 3.50086 20.7214C3.62012 22.7428 4.23656 24.7035 5.29547 26.4295C6.35438 28.1555 7.82301 29.5934 9.57102 30.6155C11.319 31.6377 13.2923 32.2125 15.3158 32.289C17.3393 32.3655 19.3504 31.9412 21.1705 31.0539C22.9146 30.2021 24.4321 28.9494 25.599 27.3983C26.7659 25.8473 27.5489 24.042 27.884 22.1302C28.2191 20.2184 28.0967 18.2544 27.5269 16.399C26.9571 14.5436 25.956 12.8495 24.6056 11.4553C22.7021 9.48918 20.1965 8.21508 17.4864 7.83514C14.7763 7.4552 12.017 7.99118 9.64616 9.35803C9.57231 9.40103 9.48838 9.4237 9.40292 9.42371C9.29131 9.42479 9.18273 9.38747 9.09538 9.31799C9.00803 9.24852 8.94722 9.15113 8.92316 9.04215C8.89909 8.93316 8.91323 8.81922 8.9632 8.71942C9.01317 8.61963 9.09594 8.54005 9.19762 8.49403C10.962 7.48502 12.9346 6.89497 14.9632 6.76946C16.9918 6.64394 19.0221 6.98632 20.8974 7.77014C22.7726 8.55397 24.4426 9.75828 25.7785 11.2901C27.1144 12.8219 28.0804 14.6402 28.6018 16.6047C29.1233 18.5691 29.1863 20.6271 28.7861 22.6198C28.3858 24.6125 27.5329 26.4865 26.2933 28.0972C25.0537 29.7079 23.4605 31.0122 21.6367 31.9093C19.813 32.8064 17.8074 33.2724 15.7749 33.2713Z" fill="#F0899C"/>
  <path d="M3.46241 17.0801C3.42069 17.0802 3.37914 17.0748 3.33884 17.064C3.27703 17.0478 3.21901 17.0196 3.16809 16.981C3.11718 16.9424 3.07437 16.8941 3.04212 16.839C3.00986 16.7838 2.98879 16.7228 2.9801 16.6595C2.97142 16.5962 2.97529 16.5318 2.99149 16.47C3.12928 15.9532 3.30206 15.4465 3.50863 14.9531C3.55791 14.8339 3.65257 14.739 3.77176 14.6895C3.89096 14.6401 4.02494 14.6399 4.14422 14.6892C4.2635 14.7385 4.35832 14.8332 4.40782 14.9524C4.45731 15.0716 4.45743 15.2055 4.40814 15.3248C4.21822 15.7774 4.05942 16.2424 3.93284 16.7167C3.90563 16.8207 3.8447 16.9128 3.75959 16.9786C3.67447 17.0443 3.56997 17.08 3.46241 17.0801Z" fill="#F0899C"/>
  <path d="M15.7755 28.8527C14.0259 28.8529 12.3155 28.3343 10.8607 27.3624C9.40588 26.3905 8.27194 25.009 7.60229 23.3926C6.93264 21.7763 6.75736 19.9976 7.0986 18.2816C7.43985 16.5656 8.2823 14.9894 9.51941 13.7522C10.7565 12.515 12.3327 11.6725 14.0487 11.3311C15.7647 10.9898 17.5433 11.165 19.1597 11.8345C20.7762 12.5041 22.1577 13.638 23.1297 15.0927C24.1016 16.5475 24.6204 18.2578 24.6203 20.0074C24.618 22.3525 23.6854 24.6009 22.0272 26.2592C20.369 27.9175 18.1206 28.8503 15.7755 28.8527ZM15.7755 12.1346C14.2183 12.1344 12.6961 12.596 11.4013 13.4609C10.1065 14.3259 9.09727 15.5554 8.50125 16.9939C7.90523 18.4325 7.74918 20.0155 8.05284 21.5427C8.35651 23.07 9.10624 24.4729 10.2072 25.574C11.3082 26.6751 12.711 27.425 14.2382 27.7289C15.7654 28.0327 17.3484 27.8769 18.7871 27.281C20.2257 26.6852 21.4553 25.6761 22.3204 24.3814C23.1856 23.0867 23.6473 21.5645 23.6473 20.0074C23.6451 17.9202 22.8151 15.9192 21.3393 14.4432C19.8636 12.9673 17.8626 12.137 15.7755 12.1346Z" fill="#F0899C"/>
  <path d="M15.7754 24.4332C14.8998 24.4332 14.0439 24.1735 13.3159 23.6871C12.5879 23.2006 12.0204 22.5092 11.6854 21.7003C11.3503 20.8913 11.2626 20.0012 11.4335 19.1425C11.6043 18.2837 12.0259 17.4949 12.645 16.8758C13.2642 16.2566 14.053 15.835 14.9117 15.6642C15.7705 15.4933 16.6606 15.581 17.4696 15.9161C18.2785 16.2512 18.9699 16.8186 19.4564 17.5466C19.9428 18.2746 20.2024 19.1305 20.2024 20.0061C20.2014 21.1799 19.7347 22.3054 18.9047 23.1354C18.0747 23.9654 16.9492 24.4321 15.7754 24.4332ZM15.7754 16.5545C15.0923 16.5545 14.4245 16.7571 13.8564 17.1366C13.2884 17.5162 12.8457 18.0556 12.5843 18.6868C12.3229 19.3179 12.2545 20.0124 12.3877 20.6824C12.521 21.3524 12.85 21.9679 13.333 22.4509C13.8161 22.934 14.4315 23.263 15.1016 23.3962C15.7716 23.5295 16.4661 23.4611 17.0972 23.1997C17.7284 22.9383 18.2678 22.4955 18.6474 21.9275C19.0269 21.3595 19.2295 20.6917 19.2295 20.0086C19.2287 19.0927 18.8645 18.2146 18.2169 17.567C17.5694 16.9194 16.6913 16.5553 15.7754 16.5545Z" fill="#F0899C"/>
  <path d="M16.3685 20.0075C16.2719 20.0075 16.1775 19.9787 16.0973 19.9248C16.0171 19.8709 15.9547 19.7944 15.9182 19.7049C15.8817 19.6155 15.8726 19.5172 15.8921 19.4226C15.9117 19.3279 15.959 19.2413 16.028 19.1736L29.1835 6.29439C29.2289 6.2486 29.2829 6.21229 29.3425 6.18757C29.402 6.16285 29.4659 6.15021 29.5304 6.15039C29.5948 6.15057 29.6586 6.16356 29.718 6.18861C29.7774 6.21366 29.8313 6.25026 29.8764 6.2963C29.9215 6.34234 29.9571 6.39689 29.9809 6.45678C30.0048 6.51667 30.0165 6.58071 30.0154 6.64517C30.0143 6.70963 30.0004 6.77323 29.9745 6.83227C29.9487 6.89131 29.9113 6.94462 29.8646 6.98909L16.709 19.8683C16.6181 19.9575 16.4958 20.0075 16.3685 20.0075Z" fill="#F0899C"/>
  <path d="M31.4557 9.09707H31.4284L27.6937 8.88739C27.5758 8.88075 27.4644 8.83149 27.3802 8.74879C27.296 8.66609 27.2447 8.55559 27.2359 8.43788L26.9377 4.47155C26.9323 4.4013 26.9423 4.33072 26.9669 4.26469C26.9915 4.19867 27.0302 4.13878 27.0802 4.08917L30.0745 1.11382C30.1371 1.05175 30.2153 1.00784 30.3009 0.986769C30.3864 0.965699 30.4761 0.968262 30.5603 0.994187C30.6446 1.02011 30.7202 1.06842 30.7791 1.13396C30.838 1.1995 30.8779 1.27981 30.8948 1.36631L31.5272 4.62869L34.4583 5.2368C34.5442 5.25479 34.6237 5.29571 34.6883 5.35522C34.7528 5.41473 34.8001 5.4906 34.825 5.57478C34.8499 5.65897 34.8516 5.74834 34.8299 5.83341C34.8082 5.91848 34.7638 5.99608 34.7015 6.05798L31.7991 8.95112C31.7543 8.99685 31.7009 9.03329 31.642 9.05834C31.583 9.08338 31.5197 9.09654 31.4557 9.09707ZM28.1743 7.93874L31.2664 8.11242L33.3783 6.00836L31.0144 5.51798C30.9206 5.49847 30.8346 5.45168 30.7673 5.38348C30.7 5.31528 30.6543 5.22871 30.636 5.13463L30.1115 2.44631L27.9223 4.61847L28.1743 7.93874Z" fill="#F0899C"/>
  <path d="M23.5509 35.0273C23.4731 35.0275 23.3964 35.0089 23.3273 34.9733C23.2581 34.9377 23.1985 34.8859 23.1535 34.8225L20.9896 31.7722C20.9508 31.7203 20.9228 31.6611 20.9073 31.5981C20.8917 31.5352 20.8889 31.4698 20.899 31.4057C20.9091 31.3417 20.9319 31.2803 20.966 31.2252C21.0001 31.1701 21.0449 31.1224 21.0978 31.0848C21.1507 31.0473 21.2105 31.0207 21.2738 31.0066C21.337 30.9925 21.4025 30.9912 21.4663 31.0027C21.5301 31.0143 21.5909 31.0385 21.6452 31.0739C21.6995 31.1093 21.7462 31.1552 21.7826 31.2089L23.6842 33.8885L25.7343 32.6333L23.8793 29.8054C23.8442 29.7519 23.8199 29.6921 23.8079 29.6293C23.7959 29.5665 23.7964 29.5019 23.8093 29.4393C23.8222 29.3766 23.8474 29.3171 23.8833 29.2642C23.9192 29.2113 23.9652 29.166 24.0187 29.1309C24.0721 29.0957 24.132 29.0715 24.1948 29.0594C24.2576 29.0474 24.3222 29.0479 24.3848 29.0609C24.4474 29.0738 24.5069 29.099 24.5598 29.1349C24.6127 29.1708 24.6581 29.2168 24.6932 29.2702L26.823 32.5175C26.8587 32.572 26.883 32.6331 26.8946 32.6971C26.9062 32.7611 26.9049 32.8269 26.8906 32.8904C26.8764 32.9539 26.8496 33.0139 26.8117 33.0668C26.7739 33.1198 26.7258 33.1646 26.6703 33.1986L23.8044 34.9534C23.7283 35.0009 23.6406 35.0265 23.5509 35.0273Z" fill="#F0899C"/>
  <path d="M7.99995 35.0268C7.91033 35.0269 7.82245 35.0021 7.746 34.9553L4.88011 33.2006C4.82463 33.1665 4.77653 33.1217 4.73868 33.0688C4.70083 33.0158 4.67399 32.9558 4.65974 32.8923C4.6455 32.8288 4.64414 32.7631 4.65576 32.6991C4.66737 32.635 4.69172 32.574 4.72735 32.5195L6.85768 29.2712C6.92864 29.1633 7.03957 29.088 7.16607 29.0618C7.29256 29.0357 7.42426 29.0609 7.53219 29.1318C7.64012 29.2028 7.71544 29.3137 7.74158 29.4402C7.76771 29.5667 7.74253 29.6984 7.67157 29.8064L5.8166 32.6328L7.86665 33.888L9.76784 31.2084C9.80483 31.1563 9.85172 31.112 9.90583 31.078C9.95994 31.0441 10.0202 31.0211 10.0832 31.0104C10.1462 30.9997 10.2107 31.0015 10.273 31.0158C10.3353 31.03 10.3941 31.0564 10.4462 31.0934C10.4983 31.1303 10.5426 31.1772 10.5766 31.2313C10.6106 31.2855 10.6336 31.3457 10.6443 31.4087C10.655 31.4717 10.6531 31.5362 10.6389 31.5985C10.6247 31.6608 10.5983 31.7197 10.5613 31.7718L8.39692 34.822C8.35192 34.8854 8.2924 34.9371 8.22333 34.9727C8.15426 35.0083 8.07766 35.0269 7.99995 35.0268Z" fill="#F0899C"/>
</symbol>


<!-- иконки для секции Contact -->

<symbol id="pin" xmlns="http://www.w3.org/2000/svg" width="16" height="16" viewBox="0 0 16 16" fill="none">
  <g clip-path="url(#clip0_80_2612)">
    <path d="M8 0C6.40935 0.00211004 4.88445 0.634929 3.75969 1.75969C2.63493 2.88445 2.00211 4.40935 2 6C2 10.3075 7.59 15.7025 7.8275 15.93C7.8737 15.9749 7.93558 16 8 16C8.06442 16 8.1263 15.9749 8.1725 15.93C8.41 15.7025 14 10.3075 14 6C13.9979 4.40935 13.3651 2.88445 12.2403 1.75969C11.1155 0.634929 9.59065 0.00211004 8 0V0ZM8 8.75C7.4561 8.75 6.92442 8.58871 6.47218 8.28654C6.01995 7.98437 5.66747 7.55488 5.45933 7.05238C5.25119 6.54988 5.19673 5.99695 5.30284 5.4635C5.40895 4.93005 5.67086 4.44005 6.05546 4.05546C6.44005 3.67086 6.93005 3.40895 7.4635 3.30284C7.99695 3.19673 8.54988 3.25119 9.05238 3.45933C9.55488 3.66747 9.98437 4.01995 10.2865 4.47218C10.5887 4.92442 10.75 5.4561 10.75 6C10.7496 6.72921 10.4597 7.42843 9.94406 7.94406C9.42843 8.45969 8.72921 8.74956 8 8.75Z" fill="#F0899C"/>
  </g>
  <defs>
    <clipPath id="clip0_80_2612">
      <rect width="16" height="16" fill="white"/>
    </clipPath>
  </defs>
</symbol>

<symbol id="call" xmlns="http://www.w3.org/2000/svg" width="16" height="16" viewBox="0 0 16 16" fill="none">
  <g clip-path="url(#clip0_80_2619)">
    <path d="M14.7162 10.5022C13.7366 10.5022 12.7747 10.349 11.8633 10.0478C11.4167 9.89542 10.8676 10.0352 10.595 10.3151L8.796 11.6732C6.70963 10.5595 5.42446 9.27475 4.32596 7.20404L5.64408 5.45188C5.98654 5.10988 6.10938 4.61029 5.96221 4.14154C5.65971 3.22529 5.50604 2.26392 5.50604 1.28392C5.50608 0.575958 4.93013 0 4.22221 0H1.28387C0.575958 0 0 0.575958 0 1.28387C0 9.39846 6.60158 16 14.7162 16C15.4241 16 16 15.424 16 14.7161V11.786C16 11.0781 15.424 10.5022 14.7162 10.5022Z" fill="#F0899C"/>
  </g>
  <defs>
    <clipPath id="clip0_80_2619">
      <rect width="16" height="16" fill="white"/>
    </clipPath>
  </defs>
</symbol>

<symbol id="email" xmlns="http://www.w3.org/2000/svg" width="16" height="16" viewBox="0 0 16 16" fill="none">
  <g clip-path="url(#clip0_80_2627)">
    <path d="M9.33716 9.80304C8.93909 10.0684 8.47672 10.2087 8 10.2087C7.52331 10.2087 7.06094 10.0684 6.66288 9.80304L0.106531 5.43201C0.0701562 5.40776 0.0347187 5.38248 0 5.35648V12.5189C0 13.3401 0.666406 13.9918 1.47291 13.9918H14.5271C15.3482 13.9918 16 13.3254 16 12.5189V5.35645C15.9652 5.38251 15.9297 5.40785 15.8932 5.43213L9.33716 9.80304Z" fill="#F0899C"/>
    <path d="M0.626562 4.6518L7.18291 9.02286C7.43109 9.18833 7.71553 9.27105 7.99997 9.27105C8.28444 9.27105 8.56891 9.1883 8.81709 9.02286L15.3734 4.6518C15.7658 4.39039 16 3.95289 16 3.48071C16 2.6688 15.3395 2.0083 14.5276 2.0083H1.47241C0.660531 2.00833 0 2.66883 0 3.48149C0 3.95289 0.23425 4.39039 0.626562 4.6518Z" fill="#F0899C"/>
  </g>
  <defs>
    <clipPath id="clip0_80_2627">
      <rect width="16" height="16" fill="white"/>
    </clipPath>
  </defs>
</symbol>

</svg>
